<?xml version="1.0" encoding="utf-8" standalone="no"?>
<!DOCTYPE svg PUBLIC "-//W3C//DTD SVG 1.1//EN"
  "http://www.w3.org/Graphics/SVG/1.1/DTD/svg11.dtd">
<svg xmlns:xlink="http://www.w3.org/1999/xlink" width="460.8pt" height="345.6pt" viewBox="0 0 460.8 345.6" xmlns="http://www.w3.org/2000/svg" version="1.1">
 <metadata>
  <rdf:RDF xmlns:dc="http://purl.org/dc/elements/1.1/" xmlns:cc="http://creativecommons.org/ns#" xmlns:rdf="http://www.w3.org/1999/02/22-rdf-syntax-ns#">
   <cc:Work>
    <dc:type rdf:resource="http://purl.org/dc/dcmitype/StillImage"/>
    <dc:date>2022-06-10T17:59:56.238748</dc:date>
    <dc:format>image/svg+xml</dc:format>
    <dc:creator>
     <cc:Agent>
      <dc:title>Matplotlib v3.5.1, https://matplotlib.org/</dc:title>
     </cc:Agent>
    </dc:creator>
   </cc:Work>
  </rdf:RDF>
 </metadata>
 <defs>
  <style type="text/css">*{stroke-linejoin: round; stroke-linecap: butt}</style>
 </defs>
 <g id="figure_1">
  <g id="patch_1">
   <path d="M 0 345.6 
L 460.8 345.6 
L 460.8 0 
L 0 0 
z
" style="fill: #ffffff"/>
  </g>
  <g id="axes_1">
   <g id="patch_2">
    <path d="M 57.6 307.584 
L 144.702439 307.584 
L 144.702439 41.472 
L 57.6 41.472 
z
" style="fill: #ffffff"/>
   </g>
   <g id="matplotlib.axis_1">
    <g id="xtick_1">
     <g id="line2d_1">
      <defs>
       <path id="m4543df85f6" d="M 0 0 
L 0 3.5 
" style="stroke: #000000; stroke-width: 0.8"/>
      </defs>
      <g>
       <use xlink:href="#m4543df85f6" x="71.313918" y="307.584" style="stroke: #000000; stroke-width: 0.8"/>
      </g>
     </g>
     <g id="text_1">
      <!-- −0.25 -->
      <g transform="translate(55.991262 322.182437)scale(0.1 -0.1)">
       <defs>
        <path id="DejaVuSans-2212" d="M 678 2272 
L 4684 2272 
L 4684 1741 
L 678 1741 
L 678 2272 
z
" transform="scale(0.015625)"/>
        <path id="DejaVuSans-30" d="M 2034 4250 
Q 1547 4250 1301 3770 
Q 1056 3291 1056 2328 
Q 1056 1369 1301 889 
Q 1547 409 2034 409 
Q 2525 409 2770 889 
Q 3016 1369 3016 2328 
Q 3016 3291 2770 3770 
Q 2525 4250 2034 4250 
z
M 2034 4750 
Q 2819 4750 3233 4129 
Q 3647 3509 3647 2328 
Q 3647 1150 3233 529 
Q 2819 -91 2034 -91 
Q 1250 -91 836 529 
Q 422 1150 422 2328 
Q 422 3509 836 4129 
Q 1250 4750 2034 4750 
z
" transform="scale(0.015625)"/>
        <path id="DejaVuSans-2e" d="M 684 794 
L 1344 794 
L 1344 0 
L 684 0 
L 684 794 
z
" transform="scale(0.015625)"/>
        <path id="DejaVuSans-32" d="M 1228 531 
L 3431 531 
L 3431 0 
L 469 0 
L 469 531 
Q 828 903 1448 1529 
Q 2069 2156 2228 2338 
Q 2531 2678 2651 2914 
Q 2772 3150 2772 3378 
Q 2772 3750 2511 3984 
Q 2250 4219 1831 4219 
Q 1534 4219 1204 4116 
Q 875 4013 500 3803 
L 500 4441 
Q 881 4594 1212 4672 
Q 1544 4750 1819 4750 
Q 2544 4750 2975 4387 
Q 3406 4025 3406 3419 
Q 3406 3131 3298 2873 
Q 3191 2616 2906 2266 
Q 2828 2175 2409 1742 
Q 1991 1309 1228 531 
z
" transform="scale(0.015625)"/>
        <path id="DejaVuSans-35" d="M 691 4666 
L 3169 4666 
L 3169 4134 
L 1269 4134 
L 1269 2991 
Q 1406 3038 1543 3061 
Q 1681 3084 1819 3084 
Q 2600 3084 3056 2656 
Q 3513 2228 3513 1497 
Q 3513 744 3044 326 
Q 2575 -91 1722 -91 
Q 1428 -91 1123 -41 
Q 819 9 494 109 
L 494 744 
Q 775 591 1075 516 
Q 1375 441 1709 441 
Q 2250 441 2565 725 
Q 2881 1009 2881 1497 
Q 2881 1984 2565 2268 
Q 2250 2553 1709 2553 
Q 1456 2553 1204 2497 
Q 953 2441 691 2322 
L 691 4666 
z
" transform="scale(0.015625)"/>
       </defs>
       <use xlink:href="#DejaVuSans-2212"/>
       <use xlink:href="#DejaVuSans-30" x="83.789062"/>
       <use xlink:href="#DejaVuSans-2e" x="147.412109"/>
       <use xlink:href="#DejaVuSans-32" x="179.199219"/>
       <use xlink:href="#DejaVuSans-35" x="242.822266"/>
      </g>
     </g>
    </g>
    <g id="xtick_2">
     <g id="line2d_2">
      <g>
       <use xlink:href="#m4543df85f6" x="120.679891" y="307.584" style="stroke: #000000; stroke-width: 0.8"/>
      </g>
     </g>
     <g id="text_2">
      <!-- 0.00 -->
      <g transform="translate(109.547078 322.182437)scale(0.1 -0.1)">
       <use xlink:href="#DejaVuSans-30"/>
       <use xlink:href="#DejaVuSans-2e" x="63.623047"/>
       <use xlink:href="#DejaVuSans-30" x="95.410156"/>
       <use xlink:href="#DejaVuSans-30" x="159.033203"/>
      </g>
     </g>
    </g>
    <g id="text_3">
     <!-- Y-axis (m) -->
     <g transform="translate(76.509032 335.860562)scale(0.1 -0.1)">
      <defs>
       <path id="DejaVuSans-59" d="M -13 4666 
L 666 4666 
L 1959 2747 
L 3244 4666 
L 3922 4666 
L 2272 2222 
L 2272 0 
L 1638 0 
L 1638 2222 
L -13 4666 
z
" transform="scale(0.015625)"/>
       <path id="DejaVuSans-2d" d="M 313 2009 
L 1997 2009 
L 1997 1497 
L 313 1497 
L 313 2009 
z
" transform="scale(0.015625)"/>
       <path id="DejaVuSans-61" d="M 2194 1759 
Q 1497 1759 1228 1600 
Q 959 1441 959 1056 
Q 959 750 1161 570 
Q 1363 391 1709 391 
Q 2188 391 2477 730 
Q 2766 1069 2766 1631 
L 2766 1759 
L 2194 1759 
z
M 3341 1997 
L 3341 0 
L 2766 0 
L 2766 531 
Q 2569 213 2275 61 
Q 1981 -91 1556 -91 
Q 1019 -91 701 211 
Q 384 513 384 1019 
Q 384 1609 779 1909 
Q 1175 2209 1959 2209 
L 2766 2209 
L 2766 2266 
Q 2766 2663 2505 2880 
Q 2244 3097 1772 3097 
Q 1472 3097 1187 3025 
Q 903 2953 641 2809 
L 641 3341 
Q 956 3463 1253 3523 
Q 1550 3584 1831 3584 
Q 2591 3584 2966 3190 
Q 3341 2797 3341 1997 
z
" transform="scale(0.015625)"/>
       <path id="DejaVuSans-78" d="M 3513 3500 
L 2247 1797 
L 3578 0 
L 2900 0 
L 1881 1375 
L 863 0 
L 184 0 
L 1544 1831 
L 300 3500 
L 978 3500 
L 1906 2253 
L 2834 3500 
L 3513 3500 
z
" transform="scale(0.015625)"/>
       <path id="DejaVuSans-69" d="M 603 3500 
L 1178 3500 
L 1178 0 
L 603 0 
L 603 3500 
z
M 603 4863 
L 1178 4863 
L 1178 4134 
L 603 4134 
L 603 4863 
z
" transform="scale(0.015625)"/>
       <path id="DejaVuSans-73" d="M 2834 3397 
L 2834 2853 
Q 2591 2978 2328 3040 
Q 2066 3103 1784 3103 
Q 1356 3103 1142 2972 
Q 928 2841 928 2578 
Q 928 2378 1081 2264 
Q 1234 2150 1697 2047 
L 1894 2003 
Q 2506 1872 2764 1633 
Q 3022 1394 3022 966 
Q 3022 478 2636 193 
Q 2250 -91 1575 -91 
Q 1294 -91 989 -36 
Q 684 19 347 128 
L 347 722 
Q 666 556 975 473 
Q 1284 391 1588 391 
Q 1994 391 2212 530 
Q 2431 669 2431 922 
Q 2431 1156 2273 1281 
Q 2116 1406 1581 1522 
L 1381 1569 
Q 847 1681 609 1914 
Q 372 2147 372 2553 
Q 372 3047 722 3315 
Q 1072 3584 1716 3584 
Q 2034 3584 2315 3537 
Q 2597 3491 2834 3397 
z
" transform="scale(0.015625)"/>
       <path id="DejaVuSans-20" transform="scale(0.015625)"/>
       <path id="DejaVuSans-28" d="M 1984 4856 
Q 1566 4138 1362 3434 
Q 1159 2731 1159 2009 
Q 1159 1288 1364 580 
Q 1569 -128 1984 -844 
L 1484 -844 
Q 1016 -109 783 600 
Q 550 1309 550 2009 
Q 550 2706 781 3412 
Q 1013 4119 1484 4856 
L 1984 4856 
z
" transform="scale(0.015625)"/>
       <path id="DejaVuSans-6d" d="M 3328 2828 
Q 3544 3216 3844 3400 
Q 4144 3584 4550 3584 
Q 5097 3584 5394 3201 
Q 5691 2819 5691 2113 
L 5691 0 
L 5113 0 
L 5113 2094 
Q 5113 2597 4934 2840 
Q 4756 3084 4391 3084 
Q 3944 3084 3684 2787 
Q 3425 2491 3425 1978 
L 3425 0 
L 2847 0 
L 2847 2094 
Q 2847 2600 2669 2842 
Q 2491 3084 2119 3084 
Q 1678 3084 1418 2786 
Q 1159 2488 1159 1978 
L 1159 0 
L 581 0 
L 581 3500 
L 1159 3500 
L 1159 2956 
Q 1356 3278 1631 3431 
Q 1906 3584 2284 3584 
Q 2666 3584 2933 3390 
Q 3200 3197 3328 2828 
z
" transform="scale(0.015625)"/>
       <path id="DejaVuSans-29" d="M 513 4856 
L 1013 4856 
Q 1481 4119 1714 3412 
Q 1947 2706 1947 2009 
Q 1947 1309 1714 600 
Q 1481 -109 1013 -844 
L 513 -844 
Q 928 -128 1133 580 
Q 1338 1288 1338 2009 
Q 1338 2731 1133 3434 
Q 928 4138 513 4856 
z
" transform="scale(0.015625)"/>
      </defs>
      <use xlink:href="#DejaVuSans-59"/>
      <use xlink:href="#DejaVuSans-2d" x="49.208984"/>
      <use xlink:href="#DejaVuSans-61" x="85.292969"/>
      <use xlink:href="#DejaVuSans-78" x="146.572266"/>
      <use xlink:href="#DejaVuSans-69" x="205.751953"/>
      <use xlink:href="#DejaVuSans-73" x="233.535156"/>
      <use xlink:href="#DejaVuSans-20" x="285.634766"/>
      <use xlink:href="#DejaVuSans-28" x="317.421875"/>
      <use xlink:href="#DejaVuSans-6d" x="356.435547"/>
      <use xlink:href="#DejaVuSans-29" x="453.847656"/>
     </g>
    </g>
   </g>
   <g id="matplotlib.axis_2">
    <g id="ytick_1">
     <g id="line2d_3">
      <defs>
       <path id="m3db19afa90" d="M 0 0 
L -3.5 0 
" style="stroke: #000000; stroke-width: 0.8"/>
      </defs>
      <g>
       <use xlink:href="#m3db19afa90" x="57.6" y="288.951711" style="stroke: #000000; stroke-width: 0.8"/>
      </g>
     </g>
     <g id="text_4">
      <!-- 0.2 -->
      <g transform="translate(34.696875 292.75093)scale(0.1 -0.1)">
       <use xlink:href="#DejaVuSans-30"/>
       <use xlink:href="#DejaVuSans-2e" x="63.623047"/>
       <use xlink:href="#DejaVuSans-32" x="95.410156"/>
      </g>
     </g>
    </g>
    <g id="ytick_2">
     <g id="line2d_4">
      <g>
       <use xlink:href="#m3db19afa90" x="57.6" y="249.458933" style="stroke: #000000; stroke-width: 0.8"/>
      </g>
     </g>
     <g id="text_5">
      <!-- 0.4 -->
      <g transform="translate(34.696875 253.258151)scale(0.1 -0.1)">
       <defs>
        <path id="DejaVuSans-34" d="M 2419 4116 
L 825 1625 
L 2419 1625 
L 2419 4116 
z
M 2253 4666 
L 3047 4666 
L 3047 1625 
L 3713 1625 
L 3713 1100 
L 3047 1100 
L 3047 0 
L 2419 0 
L 2419 1100 
L 313 1100 
L 313 1709 
L 2253 4666 
z
" transform="scale(0.015625)"/>
       </defs>
       <use xlink:href="#DejaVuSans-30"/>
       <use xlink:href="#DejaVuSans-2e" x="63.623047"/>
       <use xlink:href="#DejaVuSans-34" x="95.410156"/>
      </g>
     </g>
    </g>
    <g id="ytick_3">
     <g id="line2d_5">
      <g>
       <use xlink:href="#m3db19afa90" x="57.6" y="209.966154" style="stroke: #000000; stroke-width: 0.8"/>
      </g>
     </g>
     <g id="text_6">
      <!-- 0.6 -->
      <g transform="translate(34.696875 213.765373)scale(0.1 -0.1)">
       <defs>
        <path id="DejaVuSans-36" d="M 2113 2584 
Q 1688 2584 1439 2293 
Q 1191 2003 1191 1497 
Q 1191 994 1439 701 
Q 1688 409 2113 409 
Q 2538 409 2786 701 
Q 3034 994 3034 1497 
Q 3034 2003 2786 2293 
Q 2538 2584 2113 2584 
z
M 3366 4563 
L 3366 3988 
Q 3128 4100 2886 4159 
Q 2644 4219 2406 4219 
Q 1781 4219 1451 3797 
Q 1122 3375 1075 2522 
Q 1259 2794 1537 2939 
Q 1816 3084 2150 3084 
Q 2853 3084 3261 2657 
Q 3669 2231 3669 1497 
Q 3669 778 3244 343 
Q 2819 -91 2113 -91 
Q 1303 -91 875 529 
Q 447 1150 447 2328 
Q 447 3434 972 4092 
Q 1497 4750 2381 4750 
Q 2619 4750 2861 4703 
Q 3103 4656 3366 4563 
z
" transform="scale(0.015625)"/>
       </defs>
       <use xlink:href="#DejaVuSans-30"/>
       <use xlink:href="#DejaVuSans-2e" x="63.623047"/>
       <use xlink:href="#DejaVuSans-36" x="95.410156"/>
      </g>
     </g>
    </g>
    <g id="ytick_4">
     <g id="line2d_6">
      <g>
       <use xlink:href="#m3db19afa90" x="57.6" y="170.473376" style="stroke: #000000; stroke-width: 0.8"/>
      </g>
     </g>
     <g id="text_7">
      <!-- 0.8 -->
      <g transform="translate(34.696875 174.272595)scale(0.1 -0.1)">
       <defs>
        <path id="DejaVuSans-38" d="M 2034 2216 
Q 1584 2216 1326 1975 
Q 1069 1734 1069 1313 
Q 1069 891 1326 650 
Q 1584 409 2034 409 
Q 2484 409 2743 651 
Q 3003 894 3003 1313 
Q 3003 1734 2745 1975 
Q 2488 2216 2034 2216 
z
M 1403 2484 
Q 997 2584 770 2862 
Q 544 3141 544 3541 
Q 544 4100 942 4425 
Q 1341 4750 2034 4750 
Q 2731 4750 3128 4425 
Q 3525 4100 3525 3541 
Q 3525 3141 3298 2862 
Q 3072 2584 2669 2484 
Q 3125 2378 3379 2068 
Q 3634 1759 3634 1313 
Q 3634 634 3220 271 
Q 2806 -91 2034 -91 
Q 1263 -91 848 271 
Q 434 634 434 1313 
Q 434 1759 690 2068 
Q 947 2378 1403 2484 
z
M 1172 3481 
Q 1172 3119 1398 2916 
Q 1625 2713 2034 2713 
Q 2441 2713 2670 2916 
Q 2900 3119 2900 3481 
Q 2900 3844 2670 4047 
Q 2441 4250 2034 4250 
Q 1625 4250 1398 4047 
Q 1172 3844 1172 3481 
z
" transform="scale(0.015625)"/>
       </defs>
       <use xlink:href="#DejaVuSans-30"/>
       <use xlink:href="#DejaVuSans-2e" x="63.623047"/>
       <use xlink:href="#DejaVuSans-38" x="95.410156"/>
      </g>
     </g>
    </g>
    <g id="ytick_5">
     <g id="line2d_7">
      <g>
       <use xlink:href="#m3db19afa90" x="57.6" y="130.980598" style="stroke: #000000; stroke-width: 0.8"/>
      </g>
     </g>
     <g id="text_8">
      <!-- 1.0 -->
      <g transform="translate(34.696875 134.779817)scale(0.1 -0.1)">
       <defs>
        <path id="DejaVuSans-31" d="M 794 531 
L 1825 531 
L 1825 4091 
L 703 3866 
L 703 4441 
L 1819 4666 
L 2450 4666 
L 2450 531 
L 3481 531 
L 3481 0 
L 794 0 
L 794 531 
z
" transform="scale(0.015625)"/>
       </defs>
       <use xlink:href="#DejaVuSans-31"/>
       <use xlink:href="#DejaVuSans-2e" x="63.623047"/>
       <use xlink:href="#DejaVuSans-30" x="95.410156"/>
      </g>
     </g>
    </g>
    <g id="ytick_6">
     <g id="line2d_8">
      <g>
       <use xlink:href="#m3db19afa90" x="57.6" y="91.48782" style="stroke: #000000; stroke-width: 0.8"/>
      </g>
     </g>
     <g id="text_9">
      <!-- 1.2 -->
      <g transform="translate(34.696875 95.287039)scale(0.1 -0.1)">
       <use xlink:href="#DejaVuSans-31"/>
       <use xlink:href="#DejaVuSans-2e" x="63.623047"/>
       <use xlink:href="#DejaVuSans-32" x="95.410156"/>
      </g>
     </g>
    </g>
    <g id="ytick_7">
     <g id="line2d_9">
      <g>
       <use xlink:href="#m3db19afa90" x="57.6" y="51.995042" style="stroke: #000000; stroke-width: 0.8"/>
      </g>
     </g>
     <g id="text_10">
      <!-- 1.4 -->
      <g transform="translate(34.696875 55.79426)scale(0.1 -0.1)">
       <use xlink:href="#DejaVuSans-31"/>
       <use xlink:href="#DejaVuSans-2e" x="63.623047"/>
       <use xlink:href="#DejaVuSans-34" x="95.410156"/>
      </g>
     </g>
    </g>
    <g id="text_11">
     <!-- Z-axis (m) -->
     <g transform="translate(28.617187 200.047531)rotate(-90)scale(0.1 -0.1)">
      <defs>
       <path id="DejaVuSans-5a" d="M 359 4666 
L 4025 4666 
L 4025 4184 
L 1075 531 
L 4097 531 
L 4097 0 
L 288 0 
L 288 481 
L 3238 4134 
L 359 4134 
L 359 4666 
z
" transform="scale(0.015625)"/>
      </defs>
      <use xlink:href="#DejaVuSans-5a"/>
      <use xlink:href="#DejaVuSans-2d" x="66.755859"/>
      <use xlink:href="#DejaVuSans-61" x="102.839844"/>
      <use xlink:href="#DejaVuSans-78" x="164.119141"/>
      <use xlink:href="#DejaVuSans-69" x="223.298828"/>
      <use xlink:href="#DejaVuSans-73" x="251.082031"/>
      <use xlink:href="#DejaVuSans-20" x="303.181641"/>
      <use xlink:href="#DejaVuSans-28" x="334.96875"/>
      <use xlink:href="#DejaVuSans-6d" x="373.982422"/>
      <use xlink:href="#DejaVuSans-29" x="471.394531"/>
     </g>
    </g>
   </g>
   <g id="line2d_10">
    <path d="M 101.034652 135.039919 
L 103.982958 135.15132 
L 106.920632 135.489672 
L 109.845969 136.050035 
L 112.702557 136.822497 
L 115.512152 137.813013 
L 118.22177 139.003811 
L 120.835129 140.395544 
L 123.337703 141.980645 
L 125.715444 143.749726 
L 127.954955 145.692093 
L 130.043867 147.796885 
L 131.970723 150.052319 
L 133.735645 152.460973 
L 135.315666 154.994544 
L 136.702772 157.639671 
L 137.889848 160.382089 
L 138.870397 163.206104 
L 139.644645 166.1155 
L 140.334538 169.541512 
L 140.641924 172.274991 
L 140.732423 175.077234 
L 140.602861 177.934505 
L 140.248736 180.832065 
L 139.668952 183.734322 
L 138.873174 186.586137 
L 137.866558 189.37102 
L 136.653838 192.072056 
L 135.250523 194.65559 
L 133.656522 197.124489 
L 131.880792 199.465044 
L 129.920316 201.679643 
L 127.799141 203.741391 
L 125.514981 205.652721 
L 123.192622 207.314093 
L 120.681302 208.802893 
L 117.828749 210.244517 
L 114.982742 211.434991 
L 112.127999 212.3896 
L 109.217808 213.1293 
L 106.265525 213.650672 
L 103.306448 213.948689 
L 100.337424 214.024667 
L 97.323258 213.878474 
L 94.413867 213.514727 
L 91.545008 212.932466 
L 88.732975 212.134934 
L 85.992532 211.126605 
L 83.318916 209.905427 
L 80.744174 208.483495 
L 78.280375 206.869331 
L 75.924063 205.060347 
L 73.720911 203.090705 
L 71.658128 200.944108 
L 69.744154 198.632283 
L 68.019627 196.200191 
L 66.492263 193.66355 
L 65.158876 191.020341 
L 64.026993 188.285146 
L 63.102953 185.47324 
L 62.391933 182.600395 
L 61.89793 179.682726 
L 61.62374 176.73656 
L 61.570934 173.778322 
L 61.739827 170.824446 
L 62.12945 167.891297 
L 62.737681 164.995103 
L 63.561082 162.151929 
L 64.594968 159.377616 
L 65.833451 156.687711 
L 67.269489 154.09739 
L 68.894935 151.62136 
L 70.700606 149.27375 
L 72.676346 147.068005 
L 74.811085 145.016772 
L 77.093301 143.132159 
L 79.40646 141.511115 
L 82.000499 139.961679 
L 84.682083 138.617612 
L 87.436774 137.485317 
L 90.248879 136.56866 
L 93.121275 135.86534 
L 96.056098 135.375592 
L 98.997494 135.108164 
L 101.931986 135.063973 
L 104.881262 135.241451 
L 107.809501 135.640642 
L 110.700726 136.259281 
L 113.538319 137.093589 
L 116.306169 138.137628 
L 118.988685 139.387588 
L 121.570845 140.836359 
L 124.038172 142.475463 
L 126.377048 144.296229 
L 128.574344 146.287387 
L 130.617971 148.437569 
L 132.508625 150.750173 
L 134.221459 153.197209 
L 135.747684 155.765766 
L 137.079254 158.442037 
L 138.208261 161.210834 
L 139.280966 164.476152 
L 139.976949 167.192716 
L 140.439641 169.905316 
L 140.693717 172.717838 
L 140.731381 175.597974 
L 140.54804 178.51163 
L 140.143384 181.423554 
L 139.517243 184.317228 
L 138.675628 187.156385 
L 137.623039 189.924228 
L 136.365127 192.604245 
L 134.909666 195.18057 
L 133.264935 197.638818 
L 131.441085 199.965775 
L 129.435514 202.163441 
L 127.2715 204.204577 
L 125.02584 206.021223 
L 122.719731 207.584138 
L 119.982743 209.162794 
L 117.172054 210.532106 
L 114.341263 211.664271 
L 112.111316 212.390567 
L 112.111316 212.390567 
" clip-path="url(#p9e887ef1bb)" style="fill: none; stroke: #0000ff; stroke-width: 1.5; stroke-linecap: square"/>
   </g>
   <g id="line2d_11">
    <path d="M 101.05198 135.028608 
L 104.011162 135.139629 
L 106.953707 135.472069 
L 109.86307 136.024058 
L 112.722894 136.792494 
L 115.5171 137.773055 
L 118.229977 138.960228 
L 120.846274 140.347339 
L 123.35128 141.92659 
L 125.730911 143.689099 
L 127.971788 145.62496 
L 130.061312 147.723286 
L 131.987736 149.972281 
L 133.740227 152.3593 
L 135.308933 154.870923 
L 136.685034 157.493027 
L 137.860793 160.210872 
L 138.829599 163.009175 
L 139.586006 165.872203 
L 140.12576 168.783861 
L 140.445828 171.727777 
L 140.544409 174.6874 
L 140.420949 177.64609 
L 140.076143 180.587211 
L 139.511928 183.494228 
L 138.731478 186.350796 
L 137.73918 189.140855 
L 136.540613 191.848719 
L 135.142516 194.459161 
L 133.552749 196.957506 
L 131.780252 199.329708 
L 129.834989 201.562427 
L 127.727897 203.643112 
L 125.470824 205.560065 
L 123.076459 207.302506 
L 120.558265 208.86064 
L 117.930399 210.225707 
L 115.207636 211.39003 
L 112.405285 212.347065 
L 109.539102 213.09143 
L 106.625201 213.61894 
L 103.679965 213.92663 
L 100.719954 214.012768 
L 97.76181 213.876872 
L 94.822164 213.519706 
L 91.917545 212.943276 
L 89.064282 212.150824 
L 86.278419 211.146807 
L 83.575618 209.936867 
L 80.971076 208.527809 
L 78.479435 206.927555 
L 76.114706 205.145101 
L 73.890183 203.190469 
L 71.818374 201.07465 
L 69.910927 198.809538 
L 68.178566 196.40787 
L 66.631031 193.883148 
L 65.277023 191.249567 
L 64.124156 188.521934 
L 63.17891 185.715585 
L 62.4466 182.846298 
L 61.931343 179.930205 
L 61.636037 176.983702 
L 61.562342 174.023355 
L 61.710672 171.065808 
L 62.080193 168.12769 
L 62.668827 165.225519 
L 63.473266 162.375613 
L 64.488986 159.593995 
L 65.710276 156.896304 
L 67.13027 154.297708 
L 68.740985 151.812816 
L 70.533363 149.455601 
L 72.497329 147.239314 
L 74.621838 145.176418 
L 76.894948 143.278509 
L 79.303878 141.556259 
L 81.835083 140.019351 
L 84.474332 138.676426 
L 87.206788 137.535035 
L 90.017085 136.601594 
L 92.889425 135.881352 
L 95.807658 135.378358 
L 98.755377 135.095441 
L 101.716007 135.034191 
L 104.672905 135.194952 
L 107.609444 135.57682 
L 110.509114 136.177649 
L 113.355614 136.994061 
L 116.132937 138.021465 
L 118.825471 139.254084 
L 121.418075 140.68499 
L 123.896173 142.306136 
L 126.245833 144.108407 
L 128.453844 146.081672 
L 130.507792 148.214835 
L 132.396129 150.495902 
L 134.108237 152.91205 
L 135.634491 155.449694 
L 136.96631 158.094565 
L 138.096205 160.831794 
L 139.017824 163.645991 
L 139.725985 166.521333 
L 140.216707 169.441655 
L 140.487231 172.390537 
L 140.536035 175.351399 
L 140.362845 178.307594 
L 139.968636 181.242502 
L 139.355623 184.139621 
L 138.527253 186.982663 
L 137.488183 189.755644 
L 136.244256 192.442972 
L 134.802465 195.029538 
L 133.170916 197.500799 
L 131.358783 199.842863 
L 129.376255 202.042559 
L 127.234477 204.087522 
L 124.945491 205.966253 
L 122.522167 207.668189 
L 119.97813 209.183763 
L 117.327684 210.504451 
L 114.585729 211.62283 
L 112.26091 212.390099 
L 112.26091 212.390099 
" clip-path="url(#p9e887ef1bb)" style="fill: none; stroke: #008000; stroke-width: 1.5; stroke-linecap: square"/>
   </g>
   <g id="patch_3">
    <path d="M 57.6 307.584 
L 57.6 41.472 
" style="fill: none; stroke: #000000; stroke-width: 0.8; stroke-linejoin: miter; stroke-linecap: square"/>
   </g>
   <g id="patch_4">
    <path d="M 144.702439 307.584 
L 144.702439 41.472 
" style="fill: none; stroke: #000000; stroke-width: 0.8; stroke-linejoin: miter; stroke-linecap: square"/>
   </g>
   <g id="patch_5">
    <path d="M 57.6 307.584 
L 144.702439 307.584 
" style="fill: none; stroke: #000000; stroke-width: 0.8; stroke-linejoin: miter; stroke-linecap: square"/>
   </g>
   <g id="patch_6">
    <path d="M 57.6 41.472 
L 144.702439 41.472 
" style="fill: none; stroke: #000000; stroke-width: 0.8; stroke-linejoin: miter; stroke-linecap: square"/>
   </g>
   <g id="text_12">
    <!-- EE Traj (YZ-plane) -->
    <g transform="translate(48.001532 35.472)scale(0.12 -0.12)">
     <defs>
      <path id="DejaVuSans-45" d="M 628 4666 
L 3578 4666 
L 3578 4134 
L 1259 4134 
L 1259 2753 
L 3481 2753 
L 3481 2222 
L 1259 2222 
L 1259 531 
L 3634 531 
L 3634 0 
L 628 0 
L 628 4666 
z
" transform="scale(0.015625)"/>
      <path id="DejaVuSans-54" d="M -19 4666 
L 3928 4666 
L 3928 4134 
L 2272 4134 
L 2272 0 
L 1638 0 
L 1638 4134 
L -19 4134 
L -19 4666 
z
" transform="scale(0.015625)"/>
      <path id="DejaVuSans-72" d="M 2631 2963 
Q 2534 3019 2420 3045 
Q 2306 3072 2169 3072 
Q 1681 3072 1420 2755 
Q 1159 2438 1159 1844 
L 1159 0 
L 581 0 
L 581 3500 
L 1159 3500 
L 1159 2956 
Q 1341 3275 1631 3429 
Q 1922 3584 2338 3584 
Q 2397 3584 2469 3576 
Q 2541 3569 2628 3553 
L 2631 2963 
z
" transform="scale(0.015625)"/>
      <path id="DejaVuSans-6a" d="M 603 3500 
L 1178 3500 
L 1178 -63 
Q 1178 -731 923 -1031 
Q 669 -1331 103 -1331 
L -116 -1331 
L -116 -844 
L 38 -844 
Q 366 -844 484 -692 
Q 603 -541 603 -63 
L 603 3500 
z
M 603 4863 
L 1178 4863 
L 1178 4134 
L 603 4134 
L 603 4863 
z
" transform="scale(0.015625)"/>
      <path id="DejaVuSans-70" d="M 1159 525 
L 1159 -1331 
L 581 -1331 
L 581 3500 
L 1159 3500 
L 1159 2969 
Q 1341 3281 1617 3432 
Q 1894 3584 2278 3584 
Q 2916 3584 3314 3078 
Q 3713 2572 3713 1747 
Q 3713 922 3314 415 
Q 2916 -91 2278 -91 
Q 1894 -91 1617 61 
Q 1341 213 1159 525 
z
M 3116 1747 
Q 3116 2381 2855 2742 
Q 2594 3103 2138 3103 
Q 1681 3103 1420 2742 
Q 1159 2381 1159 1747 
Q 1159 1113 1420 752 
Q 1681 391 2138 391 
Q 2594 391 2855 752 
Q 3116 1113 3116 1747 
z
" transform="scale(0.015625)"/>
      <path id="DejaVuSans-6c" d="M 603 4863 
L 1178 4863 
L 1178 0 
L 603 0 
L 603 4863 
z
" transform="scale(0.015625)"/>
      <path id="DejaVuSans-6e" d="M 3513 2113 
L 3513 0 
L 2938 0 
L 2938 2094 
Q 2938 2591 2744 2837 
Q 2550 3084 2163 3084 
Q 1697 3084 1428 2787 
Q 1159 2491 1159 1978 
L 1159 0 
L 581 0 
L 581 3500 
L 1159 3500 
L 1159 2956 
Q 1366 3272 1645 3428 
Q 1925 3584 2291 3584 
Q 2894 3584 3203 3211 
Q 3513 2838 3513 2113 
z
" transform="scale(0.015625)"/>
      <path id="DejaVuSans-65" d="M 3597 1894 
L 3597 1613 
L 953 1613 
Q 991 1019 1311 708 
Q 1631 397 2203 397 
Q 2534 397 2845 478 
Q 3156 559 3463 722 
L 3463 178 
Q 3153 47 2828 -22 
Q 2503 -91 2169 -91 
Q 1331 -91 842 396 
Q 353 884 353 1716 
Q 353 2575 817 3079 
Q 1281 3584 2069 3584 
Q 2775 3584 3186 3129 
Q 3597 2675 3597 1894 
z
M 3022 2063 
Q 3016 2534 2758 2815 
Q 2500 3097 2075 3097 
Q 1594 3097 1305 2825 
Q 1016 2553 972 2059 
L 3022 2063 
z
" transform="scale(0.015625)"/>
     </defs>
     <use xlink:href="#DejaVuSans-45"/>
     <use xlink:href="#DejaVuSans-45" x="63.183594"/>
     <use xlink:href="#DejaVuSans-20" x="126.367188"/>
     <use xlink:href="#DejaVuSans-54" x="158.154297"/>
     <use xlink:href="#DejaVuSans-72" x="204.488281"/>
     <use xlink:href="#DejaVuSans-61" x="245.601562"/>
     <use xlink:href="#DejaVuSans-6a" x="306.880859"/>
     <use xlink:href="#DejaVuSans-20" x="334.664062"/>
     <use xlink:href="#DejaVuSans-28" x="366.451172"/>
     <use xlink:href="#DejaVuSans-59" x="405.464844"/>
     <use xlink:href="#DejaVuSans-5a" x="466.548828"/>
     <use xlink:href="#DejaVuSans-2d" x="533.304688"/>
     <use xlink:href="#DejaVuSans-70" x="569.388672"/>
     <use xlink:href="#DejaVuSans-6c" x="632.865234"/>
     <use xlink:href="#DejaVuSans-61" x="660.648438"/>
     <use xlink:href="#DejaVuSans-6e" x="721.927734"/>
     <use xlink:href="#DejaVuSans-65" x="785.306641"/>
     <use xlink:href="#DejaVuSans-29" x="846.830078"/>
    </g>
   </g>
   <g id="legend_1">
    <g id="patch_7">
     <path d="M 67.402439 78.82825 
L 137.702439 78.82825 
Q 139.702439 78.82825 139.702439 76.82825 
L 139.702439 48.472 
Q 139.702439 46.472 137.702439 46.472 
L 67.402439 46.472 
Q 65.402439 46.472 65.402439 48.472 
L 65.402439 76.82825 
Q 65.402439 78.82825 67.402439 78.82825 
z
" style="fill: #ffffff; opacity: 0.8; stroke: #cccccc; stroke-linejoin: miter"/>
    </g>
    <g id="line2d_12">
     <path d="M 69.402439 54.570437 
L 79.402439 54.570437 
L 89.402439 54.570437 
" style="fill: none; stroke: #0000ff; stroke-width: 1.5; stroke-linecap: square"/>
    </g>
    <g id="text_13">
     <!-- Tracked -->
     <g transform="translate(97.402439 58.070437)scale(0.1 -0.1)">
      <defs>
       <path id="DejaVuSans-63" d="M 3122 3366 
L 3122 2828 
Q 2878 2963 2633 3030 
Q 2388 3097 2138 3097 
Q 1578 3097 1268 2742 
Q 959 2388 959 1747 
Q 959 1106 1268 751 
Q 1578 397 2138 397 
Q 2388 397 2633 464 
Q 2878 531 3122 666 
L 3122 134 
Q 2881 22 2623 -34 
Q 2366 -91 2075 -91 
Q 1284 -91 818 406 
Q 353 903 353 1747 
Q 353 2603 823 3093 
Q 1294 3584 2113 3584 
Q 2378 3584 2631 3529 
Q 2884 3475 3122 3366 
z
" transform="scale(0.015625)"/>
       <path id="DejaVuSans-6b" d="M 581 4863 
L 1159 4863 
L 1159 1991 
L 2875 3500 
L 3609 3500 
L 1753 1863 
L 3688 0 
L 2938 0 
L 1159 1709 
L 1159 0 
L 581 0 
L 581 4863 
z
" transform="scale(0.015625)"/>
       <path id="DejaVuSans-64" d="M 2906 2969 
L 2906 4863 
L 3481 4863 
L 3481 0 
L 2906 0 
L 2906 525 
Q 2725 213 2448 61 
Q 2172 -91 1784 -91 
Q 1150 -91 751 415 
Q 353 922 353 1747 
Q 353 2572 751 3078 
Q 1150 3584 1784 3584 
Q 2172 3584 2448 3432 
Q 2725 3281 2906 2969 
z
M 947 1747 
Q 947 1113 1208 752 
Q 1469 391 1925 391 
Q 2381 391 2643 752 
Q 2906 1113 2906 1747 
Q 2906 2381 2643 2742 
Q 2381 3103 1925 3103 
Q 1469 3103 1208 2742 
Q 947 2381 947 1747 
z
" transform="scale(0.015625)"/>
      </defs>
      <use xlink:href="#DejaVuSans-54"/>
      <use xlink:href="#DejaVuSans-72" x="46.333984"/>
      <use xlink:href="#DejaVuSans-61" x="87.447266"/>
      <use xlink:href="#DejaVuSans-63" x="148.726562"/>
      <use xlink:href="#DejaVuSans-6b" x="203.707031"/>
      <use xlink:href="#DejaVuSans-65" x="257.992188"/>
      <use xlink:href="#DejaVuSans-64" x="319.515625"/>
     </g>
    </g>
    <g id="line2d_13">
     <path d="M 69.402439 69.248562 
L 79.402439 69.248562 
L 89.402439 69.248562 
" style="fill: none; stroke: #008000; stroke-width: 1.5; stroke-linecap: square"/>
    </g>
    <g id="text_14">
     <!-- Desired -->
     <g transform="translate(97.402439 72.748562)scale(0.1 -0.1)">
      <defs>
       <path id="DejaVuSans-44" d="M 1259 4147 
L 1259 519 
L 2022 519 
Q 2988 519 3436 956 
Q 3884 1394 3884 2338 
Q 3884 3275 3436 3711 
Q 2988 4147 2022 4147 
L 1259 4147 
z
M 628 4666 
L 1925 4666 
Q 3281 4666 3915 4102 
Q 4550 3538 4550 2338 
Q 4550 1131 3912 565 
Q 3275 0 1925 0 
L 628 0 
L 628 4666 
z
" transform="scale(0.015625)"/>
      </defs>
      <use xlink:href="#DejaVuSans-44"/>
      <use xlink:href="#DejaVuSans-65" x="77.001953"/>
      <use xlink:href="#DejaVuSans-73" x="138.525391"/>
      <use xlink:href="#DejaVuSans-69" x="190.625"/>
      <use xlink:href="#DejaVuSans-72" x="218.408203"/>
      <use xlink:href="#DejaVuSans-65" x="257.271484"/>
      <use xlink:href="#DejaVuSans-64" x="318.794922"/>
     </g>
    </g>
   </g>
  </g>
  <g id="axes_2">
   <g id="patch_8">
    <path d="M 192.60878 307.584 
L 279.71122 307.584 
L 279.71122 41.472 
L 192.60878 41.472 
z
" style="fill: #ffffff"/>
   </g>
   <g id="matplotlib.axis_3">
    <g id="xtick_3">
     <g id="line2d_14">
      <g>
       <use xlink:href="#m4543df85f6" x="196.567982" y="307.584" style="stroke: #000000; stroke-width: 0.8"/>
      </g>
     </g>
     <g id="text_15">
      <!-- 0 -->
      <g transform="translate(193.386732 322.182437)scale(0.1 -0.1)">
       <use xlink:href="#DejaVuSans-30"/>
      </g>
     </g>
    </g>
    <g id="xtick_4">
     <g id="line2d_15">
      <g>
       <use xlink:href="#m4543df85f6" x="239.89714" y="307.584" style="stroke: #000000; stroke-width: 0.8"/>
      </g>
     </g>
     <g id="text_16">
      <!-- 5 -->
      <g transform="translate(236.71589 322.182437)scale(0.1 -0.1)">
       <use xlink:href="#DejaVuSans-35"/>
      </g>
     </g>
    </g>
    <g id="text_17">
     <!-- Time (s) -->
     <g transform="translate(215.831094 335.860562)scale(0.1 -0.1)">
      <use xlink:href="#DejaVuSans-54"/>
      <use xlink:href="#DejaVuSans-69" x="57.958984"/>
      <use xlink:href="#DejaVuSans-6d" x="85.742188"/>
      <use xlink:href="#DejaVuSans-65" x="183.154297"/>
      <use xlink:href="#DejaVuSans-20" x="244.677734"/>
      <use xlink:href="#DejaVuSans-28" x="276.464844"/>
      <use xlink:href="#DejaVuSans-73" x="315.478516"/>
      <use xlink:href="#DejaVuSans-29" x="367.578125"/>
     </g>
    </g>
   </g>
   <g id="matplotlib.axis_4">
    <g id="ytick_8">
     <g id="line2d_16">
      <g>
       <use xlink:href="#m3db19afa90" x="192.60878" y="290.794179" style="stroke: #000000; stroke-width: 0.8"/>
      </g>
     </g>
     <g id="text_18">
      <!-- −1.0 -->
      <g transform="translate(161.325968 294.593398)scale(0.1 -0.1)">
       <use xlink:href="#DejaVuSans-2212"/>
       <use xlink:href="#DejaVuSans-31" x="83.789062"/>
       <use xlink:href="#DejaVuSans-2e" x="147.412109"/>
       <use xlink:href="#DejaVuSans-30" x="179.199219"/>
      </g>
     </g>
    </g>
    <g id="ytick_9">
     <g id="line2d_17">
      <g>
       <use xlink:href="#m3db19afa90" x="192.60878" y="232.734969" style="stroke: #000000; stroke-width: 0.8"/>
      </g>
     </g>
     <g id="text_19">
      <!-- −0.5 -->
      <g transform="translate(161.325968 236.534188)scale(0.1 -0.1)">
       <use xlink:href="#DejaVuSans-2212"/>
       <use xlink:href="#DejaVuSans-30" x="83.789062"/>
       <use xlink:href="#DejaVuSans-2e" x="147.412109"/>
       <use xlink:href="#DejaVuSans-35" x="179.199219"/>
      </g>
     </g>
    </g>
    <g id="ytick_10">
     <g id="line2d_18">
      <g>
       <use xlink:href="#m3db19afa90" x="192.60878" y="174.675759" style="stroke: #000000; stroke-width: 0.8"/>
      </g>
     </g>
     <g id="text_20">
      <!-- 0.0 -->
      <g transform="translate(169.705655 178.474978)scale(0.1 -0.1)">
       <use xlink:href="#DejaVuSans-30"/>
       <use xlink:href="#DejaVuSans-2e" x="63.623047"/>
       <use xlink:href="#DejaVuSans-30" x="95.410156"/>
      </g>
     </g>
    </g>
    <g id="ytick_11">
     <g id="line2d_19">
      <g>
       <use xlink:href="#m3db19afa90" x="192.60878" y="116.61655" style="stroke: #000000; stroke-width: 0.8"/>
      </g>
     </g>
     <g id="text_21">
      <!-- 0.5 -->
      <g transform="translate(169.705655 120.415768)scale(0.1 -0.1)">
       <use xlink:href="#DejaVuSans-30"/>
       <use xlink:href="#DejaVuSans-2e" x="63.623047"/>
       <use xlink:href="#DejaVuSans-35" x="95.410156"/>
      </g>
     </g>
    </g>
    <g id="ytick_12">
     <g id="line2d_20">
      <g>
       <use xlink:href="#m3db19afa90" x="192.60878" y="58.55734" style="stroke: #000000; stroke-width: 0.8"/>
      </g>
     </g>
     <g id="text_22">
      <!-- 1.0 -->
      <g transform="translate(169.705655 62.356559)scale(0.1 -0.1)">
       <use xlink:href="#DejaVuSans-31"/>
       <use xlink:href="#DejaVuSans-2e" x="63.623047"/>
       <use xlink:href="#DejaVuSans-30" x="95.410156"/>
      </g>
     </g>
    </g>
    <g id="text_23">
     <!-- Magnitude (mm) -->
     <g transform="translate(155.24628 216.249094)rotate(-90)scale(0.1 -0.1)">
      <defs>
       <path id="DejaVuSans-4d" d="M 628 4666 
L 1569 4666 
L 2759 1491 
L 3956 4666 
L 4897 4666 
L 4897 0 
L 4281 0 
L 4281 4097 
L 3078 897 
L 2444 897 
L 1241 4097 
L 1241 0 
L 628 0 
L 628 4666 
z
" transform="scale(0.015625)"/>
       <path id="DejaVuSans-67" d="M 2906 1791 
Q 2906 2416 2648 2759 
Q 2391 3103 1925 3103 
Q 1463 3103 1205 2759 
Q 947 2416 947 1791 
Q 947 1169 1205 825 
Q 1463 481 1925 481 
Q 2391 481 2648 825 
Q 2906 1169 2906 1791 
z
M 3481 434 
Q 3481 -459 3084 -895 
Q 2688 -1331 1869 -1331 
Q 1566 -1331 1297 -1286 
Q 1028 -1241 775 -1147 
L 775 -588 
Q 1028 -725 1275 -790 
Q 1522 -856 1778 -856 
Q 2344 -856 2625 -561 
Q 2906 -266 2906 331 
L 2906 616 
Q 2728 306 2450 153 
Q 2172 0 1784 0 
Q 1141 0 747 490 
Q 353 981 353 1791 
Q 353 2603 747 3093 
Q 1141 3584 1784 3584 
Q 2172 3584 2450 3431 
Q 2728 3278 2906 2969 
L 2906 3500 
L 3481 3500 
L 3481 434 
z
" transform="scale(0.015625)"/>
       <path id="DejaVuSans-74" d="M 1172 4494 
L 1172 3500 
L 2356 3500 
L 2356 3053 
L 1172 3053 
L 1172 1153 
Q 1172 725 1289 603 
Q 1406 481 1766 481 
L 2356 481 
L 2356 0 
L 1766 0 
Q 1100 0 847 248 
Q 594 497 594 1153 
L 594 3053 
L 172 3053 
L 172 3500 
L 594 3500 
L 594 4494 
L 1172 4494 
z
" transform="scale(0.015625)"/>
       <path id="DejaVuSans-75" d="M 544 1381 
L 544 3500 
L 1119 3500 
L 1119 1403 
Q 1119 906 1312 657 
Q 1506 409 1894 409 
Q 2359 409 2629 706 
Q 2900 1003 2900 1516 
L 2900 3500 
L 3475 3500 
L 3475 0 
L 2900 0 
L 2900 538 
Q 2691 219 2414 64 
Q 2138 -91 1772 -91 
Q 1169 -91 856 284 
Q 544 659 544 1381 
z
M 1991 3584 
L 1991 3584 
z
" transform="scale(0.015625)"/>
      </defs>
      <use xlink:href="#DejaVuSans-4d"/>
      <use xlink:href="#DejaVuSans-61" x="86.279297"/>
      <use xlink:href="#DejaVuSans-67" x="147.558594"/>
      <use xlink:href="#DejaVuSans-6e" x="211.035156"/>
      <use xlink:href="#DejaVuSans-69" x="274.414062"/>
      <use xlink:href="#DejaVuSans-74" x="302.197266"/>
      <use xlink:href="#DejaVuSans-75" x="341.40625"/>
      <use xlink:href="#DejaVuSans-64" x="404.785156"/>
      <use xlink:href="#DejaVuSans-65" x="468.261719"/>
      <use xlink:href="#DejaVuSans-20" x="529.785156"/>
      <use xlink:href="#DejaVuSans-28" x="561.572266"/>
      <use xlink:href="#DejaVuSans-6d" x="600.585938"/>
      <use xlink:href="#DejaVuSans-6d" x="697.998047"/>
      <use xlink:href="#DejaVuSans-29" x="795.410156"/>
     </g>
    </g>
   </g>
   <g id="line2d_21">
    <path d="M 196.567982 117.701576 
L 196.602646 117.611445 
L 196.706636 116.345217 
L 197.005607 109.114145 
L 197.789865 90.792921 
L 198.439802 80.91409 
L 199.176398 73.00594 
L 200.01265 66.369377 
L 200.757912 62.093708 
L 201.403516 59.570746 
L 201.958129 58.219215 
L 202.421751 57.613061 
L 202.816047 57.430428 
L 203.188678 57.499225 
L 203.621969 57.824255 
L 204.180915 58.55057 
L 204.778858 59.687477 
L 205.472124 61.534348 
L 206.213053 64.156264 
L 206.871656 67.324931 
L 207.473931 71.374985 
L 208.041543 76.788973 
L 208.266855 80.586436 
L 208.418507 90.407339 
L 209.766044 203.206241 
L 210.311991 223.118915 
L 210.909933 237.152929 
L 211.538206 247.023582 
L 212.071155 252.334963 
L 212.439453 254.179566 
L 212.656098 254.44973 
L 212.781753 254.301704 
L 212.968068 253.643879 
L 213.232376 251.76169 
L 213.583342 247.450564 
L 214.029633 238.920841 
L 214.601578 223.291314 
L 215.403167 194.557205 
L 217.916258 100.383706 
L 218.501202 87.338892 
L 218.527199 87.264125 
L 218.574861 87.511987 
L 218.69185 89.968066 
L 219.159805 107.448271 
L 219.575765 117.466695 
L 219.900734 120.871274 
L 220.126045 121.522223 
L 220.234368 121.440282 
L 220.399019 120.907635 
L 220.676326 119.110659 
L 221.135615 114.425006 
L 222.158183 101.055149 
L 223.726698 81.639069 
L 224.393967 73.293782 
L 225.264883 63.018905 
L 225.949484 57.376564 
L 226.473767 54.680168 
L 226.85073 53.722101 
L 227.097707 53.570149 
L 227.271023 53.708988 
L 227.513667 54.245165 
L 227.851634 55.601851 
L 228.302257 58.43899 
L 228.9002 63.778403 
L 229.788447 73.980464 
L 230.169744 80.066328 
L 230.390723 91.561779 
L 231.421957 151.934151 
L 231.837917 162.340476 
L 232.206214 166.747672 
L 232.513851 168.224089 
L 232.73483 168.466883 
L 232.895148 168.337716 
L 233.137791 167.784601 
L 233.545085 166.213174 
L 234.320677 162.16652 
L 237.301723 146.05051 
L 240.287102 132.196893 
L 241.439658 128.479828 
L 242.670206 125.244519 
L 244.074071 122.18701 
L 245.846233 118.361664 
L 247.410416 114.138987 
L 248.601968 110.788763 
L 249.364561 107.936379 
L 250.101156 104.246981 
L 250.699099 100.094097 
L 251.27971 94.411937 
L 251.873319 86.245275 
L 252.696573 75.535647 
L 253.515494 67.801853 
L 254.412408 61.376574 
L 255.153336 57.553146 
L 255.781609 55.372945 
L 256.305892 54.273715 
L 256.743516 53.815884 
L 257.12048 53.716356 
L 257.488778 53.855779 
L 257.922069 54.280925 
L 258.468017 55.156423 
L 259.031296 56.475688 
L 259.655236 58.567552 
L 260.326838 61.629077 
L 260.972442 65.645656 
L 261.57905 70.871811 
L 261.973346 75.972138 
L 262.116332 83.408759 
L 262.48463 120.10549 
L 263.06524 168.228949 
L 263.572192 193.003834 
L 264.083476 207.908502 
L 264.603425 217.067874 
L 265.11471 222.489424 
L 265.552334 225.08207 
L 265.87297 225.899292 
L 266.063618 225.945305 
L 266.232602 225.701385 
L 266.470912 224.884147 
L 266.791548 222.869278 
L 267.198842 218.72578 
L 267.705793 211.055823 
L 268.347065 197.632944 
L 269.256977 173.317837 
L 271.557755 110.123196 
L 272.255355 97.545714 
L 272.54566 94.856046 
L 272.554326 94.859236 
L 272.623653 95.056009 
L 272.792636 96.453909 
L 273.147935 101.47979 
L 273.849868 113.725067 
L 274.109843 114.956205 
L 274.2095 114.992678 
L 274.244163 114.955381 
L 274.387149 114.553319 
L 274.634125 113.050269 
L 275.032754 109.029314 
L 275.752018 99.196606 
L 275.752018 99.196606 
" clip-path="url(#pec2dee41be)" style="fill: none; stroke: #ff0000; stroke-width: 1.5; stroke-linecap: square"/>
   </g>
   <g id="line2d_22">
    <path d="M 196.567982 184.86534 
L 196.615644 184.973906 
L 196.741299 186.099263 
L 197.313244 191.819428 
L 197.776866 193.805655 
L 198.613118 196.284947 
L 199.757008 199.037583 
L 200.697251 200.749628 
L 201.39485 201.588469 
L 201.88447 201.856897 
L 202.40442 201.898643 
L 202.876708 201.715011 
L 203.335997 201.288171 
L 203.81695 200.518124 
L 204.3369 199.234131 
L 205.069163 196.76023 
L 205.662772 193.935124 
L 206.247716 189.989238 
L 206.867323 184.188868 
L 207.582254 175.228467 
L 208.284186 163.79868 
L 208.466169 153.940662 
L 209.618725 79.455746 
L 210.078014 66.333438 
L 210.493974 60.050143 
L 210.853606 57.499677 
L 211.143911 56.743466 
L 211.347558 56.683248 
L 211.559871 56.898908 
L 211.932502 57.669464 
L 213.128386 60.289129 
L 214.293941 62.363268 
L 214.757563 63.906447 
L 215.351172 66.792878 
L 216.001109 71.001748 
L 217.907592 84.124469 
L 218.505535 87.277729 
L 218.639855 94.036207 
L 218.925828 123.023419 
L 219.632093 191.494589 
L 220.182373 223.680917 
L 220.775983 245.986155 
L 221.447585 263.105139 
L 222.210178 277.054299 
L 222.946773 286.768333 
L 223.648706 293.406249 
L 224.030002 295.461147 
L 224.120994 295.468351 
L 224.151324 295.432468 
L 224.315975 294.988178 
L 224.636611 293.352029 
L 225.117564 289.649524 
L 225.663512 283.59272 
L 226.296117 273.874776 
L 227.128037 257.275679 
L 229.320492 212.014108 
L 229.966097 203.578763 
L 230.581371 196.206031 
L 231.131651 190.513304 
L 231.595273 187.927556 
L 232.418527 184.739273 
L 233.857055 180.109294 
L 235.18726 176.499135 
L 236.305153 174.078072 
L 237.34072 172.345281 
L 238.302627 171.147214 
L 239.195207 170.397196 
L 240.018461 169.974358 
L 240.707395 169.858537 
L 241.314003 169.978414 
L 241.894614 170.324262 
L 242.496889 170.954966 
L 243.15116 171.980907 
L 243.896421 173.589676 
L 244.793335 176.096209 
L 245.356614 177.768288 
L 245.412942 177.668529 
L 245.551595 176.861081 
L 246.656488 168.817139 
L 246.938128 168.409433 
L 247.150441 168.426196 
L 247.40175 168.715325 
L 247.783047 169.548723 
L 248.415652 171.544603 
L 249.624536 176.207696 
L 249.988501 178.762633 
L 250.993737 185.661786 
L 252.731236 195.353058 
L 253.649814 198.953029 
L 254.551061 201.6447 
L 255.32232 203.325398 
L 255.963591 204.236584 
L 256.479208 204.621348 
L 256.856172 204.637664 
L 257.2548 204.425935 
L 257.675093 203.936993 
L 258.130049 203.040215 
L 258.628335 201.524117 
L 259.291271 198.718591 
L 259.88488 195.196804 
L 260.495821 190.124721 
L 261.197754 182.26762 
L 261.990677 170.914616 
L 262.155328 162.708856 
L 263.515864 74.861611 
L 263.957821 64.486086 
L 264.360782 59.612446 
L 264.707415 57.719804 
L 264.976056 57.242099 
L 265.158039 57.268448 
L 265.38335 57.587332 
L 265.751648 58.568465 
L 266.466579 61.236113 
L 267.926772 67.589168 
L 269.148654 74.072252 
L 270.61318 81.251411 
L 271.13313 82.735073 
L 271.514426 83.250283 
L 271.809064 83.321976 
L 272.108036 83.148521 
L 272.376676 82.871465 
L 272.41134 83.00184 
L 272.493665 84.348682 
L 272.64965 91.483398 
L 272.96162 118.313765 
L 273.906196 202.794978 
L 274.452143 229.788797 
L 275.028421 247.922979 
L 275.656694 261.049748 
L 275.752018 262.644049 
L 275.752018 262.644049 
" clip-path="url(#pec2dee41be)" style="fill: none; stroke: #0000ff; stroke-width: 1.5; stroke-linecap: square"/>
   </g>
   <g id="line2d_23">
    <path d="M 196.567982 181.32747 
L 196.680638 181.216948 
L 196.940613 180.636414 
L 197.014273 180.734817 
L 197.191922 181.398621 
L 198.509129 187.309435 
L 199.228393 188.992152 
L 199.631354 189.568544 
L 200.424277 190.119818 
L 200.905231 190.897535 
L 201.46851 192.248413 
L 202.244102 195.092967 
L 205.24248 206.110845 
L 206.962647 210.268373 
L 207.937553 213.934374 
L 208.648151 216.740404 
L 209.341418 218.049308 
L 209.727047 218.388861 
L 210.01302 218.371317 
L 210.311991 218.107726 
L 210.723618 217.405687 
L 211.650862 215.222475 
L 212.322464 213.978144 
L 212.855413 213.433193 
L 214.020967 212.459589 
L 214.393598 211.626384 
L 214.800892 210.111961 
L 215.260181 207.471235 
L 215.845124 202.620841 
L 216.707375 193.348943 
L 218.089575 178.685899 
L 218.609525 175.25913 
L 218.830503 174.789653 
L 218.995154 174.869887 
L 220.438015 176.100794 
L 221.022959 176.342511 
L 221.451917 176.565781 
L 221.898208 177.079257 
L 222.322834 177.890082 
L 223.947677 182.952802 
L 224.220651 184.759854 
L 225.420868 193.408417 
L 226.023144 196.040798 
L 226.504097 197.269635 
L 226.872395 197.687553 
L 227.171366 197.718792 
L 227.65232 197.620614 
L 227.951291 197.237386 
L 228.349919 196.316262 
L 228.943529 194.309943 
L 230.273734 188.792392 
L 231.023328 184.295651 
L 231.803253 180.237091 
L 232.353534 178.525435 
L 232.895148 177.517738 
L 233.423764 176.971907 
L 233.926382 176.752917 
L 234.416001 176.776611 
L 234.927285 177.030806 
L 235.494897 177.575186 
L 236.157834 178.539706 
L 236.989753 180.17556 
L 239.92747 186.353766 
L 240.490749 186.870859 
L 240.954371 187.018571 
L 241.387663 186.925124 
L 241.859951 186.58039 
L 242.436228 185.858377 
L 243.224819 184.473946 
L 245.326283 180.485588 
L 245.360947 180.531043 
L 245.473602 181.038276 
L 245.73791 183.592281 
L 246.431177 190.128279 
L 246.877467 192.319914 
L 247.289094 193.345234 
L 247.679057 193.77977 
L 248.086351 193.912388 
L 248.645297 193.835069 
L 249.663532 193.448757 
L 249.910508 192.657556 
L 250.660103 190.246027 
L 251.110726 189.531305 
L 252.003306 188.753175 
L 252.471261 188.654351 
L 252.956548 188.782805 
L 253.489497 189.164706 
L 253.883792 189.389456 
L 254.499066 189.404155 
L 254.854365 189.71688 
L 255.313654 190.452727 
L 255.941927 191.923267 
L 256.63086 194.088727 
L 258.346695 201.353538 
L 259.26094 204.846601 
L 261.704705 212.39851 
L 262.501961 215.388559 
L 263.056575 216.509099 
L 263.437871 216.850913 
L 263.736842 216.847444 
L 264.057478 216.598465 
L 264.49077 215.938623 
L 265.292359 214.214935 
L 266.262932 212.308206 
L 267.094852 211.19879 
L 267.831448 210.125957 
L 268.316734 208.975115 
L 268.806354 207.19558 
L 269.343635 204.305644 
L 270.041235 199.235711 
L 271.23712 188.542114 
L 272.298684 179.909949 
L 272.558659 178.828227 
L 272.567325 178.831327 
L 272.653983 179.002008 
L 272.831633 179.983322 
L 273.19993 182.278498 
L 273.247592 182.22992 
L 273.394912 181.731861 
L 274.681788 176.367437 
L 275.366388 175.122704 
L 275.704356 174.949927 
L 275.752018 174.950828 
L 275.752018 174.950828 
" clip-path="url(#pec2dee41be)" style="fill: none; stroke: #008000; stroke-width: 1.5; stroke-linecap: square"/>
   </g>
   <g id="patch_9">
    <path d="M 192.60878 307.584 
L 192.60878 41.472 
" style="fill: none; stroke: #000000; stroke-width: 0.8; stroke-linejoin: miter; stroke-linecap: square"/>
   </g>
   <g id="patch_10">
    <path d="M 279.71122 307.584 
L 279.71122 41.472 
" style="fill: none; stroke: #000000; stroke-width: 0.8; stroke-linejoin: miter; stroke-linecap: square"/>
   </g>
   <g id="patch_11">
    <path d="M 192.60878 307.584 
L 279.71122 307.584 
" style="fill: none; stroke: #000000; stroke-width: 0.8; stroke-linejoin: miter; stroke-linecap: square"/>
   </g>
   <g id="patch_12">
    <path d="M 192.60878 41.472 
L 279.71122 41.472 
" style="fill: none; stroke: #000000; stroke-width: 0.8; stroke-linejoin: miter; stroke-linecap: square"/>
   </g>
   <g id="text_24">
    <!-- Trajectory Tracking Error -->
    <g transform="translate(163.126875 35.472)scale(0.12 -0.12)">
     <defs>
      <path id="DejaVuSans-6f" d="M 1959 3097 
Q 1497 3097 1228 2736 
Q 959 2375 959 1747 
Q 959 1119 1226 758 
Q 1494 397 1959 397 
Q 2419 397 2687 759 
Q 2956 1122 2956 1747 
Q 2956 2369 2687 2733 
Q 2419 3097 1959 3097 
z
M 1959 3584 
Q 2709 3584 3137 3096 
Q 3566 2609 3566 1747 
Q 3566 888 3137 398 
Q 2709 -91 1959 -91 
Q 1206 -91 779 398 
Q 353 888 353 1747 
Q 353 2609 779 3096 
Q 1206 3584 1959 3584 
z
" transform="scale(0.015625)"/>
      <path id="DejaVuSans-79" d="M 2059 -325 
Q 1816 -950 1584 -1140 
Q 1353 -1331 966 -1331 
L 506 -1331 
L 506 -850 
L 844 -850 
Q 1081 -850 1212 -737 
Q 1344 -625 1503 -206 
L 1606 56 
L 191 3500 
L 800 3500 
L 1894 763 
L 2988 3500 
L 3597 3500 
L 2059 -325 
z
" transform="scale(0.015625)"/>
     </defs>
     <use xlink:href="#DejaVuSans-54"/>
     <use xlink:href="#DejaVuSans-72" x="46.333984"/>
     <use xlink:href="#DejaVuSans-61" x="87.447266"/>
     <use xlink:href="#DejaVuSans-6a" x="148.726562"/>
     <use xlink:href="#DejaVuSans-65" x="176.509766"/>
     <use xlink:href="#DejaVuSans-63" x="238.033203"/>
     <use xlink:href="#DejaVuSans-74" x="293.013672"/>
     <use xlink:href="#DejaVuSans-6f" x="332.222656"/>
     <use xlink:href="#DejaVuSans-72" x="393.404297"/>
     <use xlink:href="#DejaVuSans-79" x="434.517578"/>
     <use xlink:href="#DejaVuSans-20" x="493.697266"/>
     <use xlink:href="#DejaVuSans-54" x="525.484375"/>
     <use xlink:href="#DejaVuSans-72" x="571.818359"/>
     <use xlink:href="#DejaVuSans-61" x="612.931641"/>
     <use xlink:href="#DejaVuSans-63" x="674.210938"/>
     <use xlink:href="#DejaVuSans-6b" x="729.191406"/>
     <use xlink:href="#DejaVuSans-69" x="787.101562"/>
     <use xlink:href="#DejaVuSans-6e" x="814.884766"/>
     <use xlink:href="#DejaVuSans-67" x="878.263672"/>
     <use xlink:href="#DejaVuSans-20" x="941.740234"/>
     <use xlink:href="#DejaVuSans-45" x="973.527344"/>
     <use xlink:href="#DejaVuSans-72" x="1036.710938"/>
     <use xlink:href="#DejaVuSans-72" x="1076.074219"/>
     <use xlink:href="#DejaVuSans-6f" x="1114.9375"/>
     <use xlink:href="#DejaVuSans-72" x="1176.119141"/>
    </g>
   </g>
   <g id="legend_2">
    <g id="patch_13">
     <path d="M 233.86122 302.584 
L 272.71122 302.584 
Q 274.71122 302.584 274.71122 300.584 
L 274.71122 257.549625 
Q 274.71122 255.549625 272.71122 255.549625 
L 233.86122 255.549625 
Q 231.86122 255.549625 231.86122 257.549625 
L 231.86122 300.584 
Q 231.86122 302.584 233.86122 302.584 
z
" style="fill: #ffffff; opacity: 0.8; stroke: #cccccc; stroke-linejoin: miter"/>
    </g>
    <g id="line2d_24">
     <path d="M 235.86122 263.648062 
L 245.86122 263.648062 
L 255.86122 263.648062 
" style="fill: none; stroke: #ff0000; stroke-width: 1.5; stroke-linecap: square"/>
    </g>
    <g id="text_25">
     <!-- X -->
     <g transform="translate(263.86122 267.148062)scale(0.1 -0.1)">
      <defs>
       <path id="DejaVuSans-58" d="M 403 4666 
L 1081 4666 
L 2241 2931 
L 3406 4666 
L 4084 4666 
L 2584 2425 
L 4184 0 
L 3506 0 
L 2194 1984 
L 872 0 
L 191 0 
L 1856 2491 
L 403 4666 
z
" transform="scale(0.015625)"/>
      </defs>
      <use xlink:href="#DejaVuSans-58"/>
     </g>
    </g>
    <g id="line2d_25">
     <path d="M 235.86122 278.326188 
L 245.86122 278.326188 
L 255.86122 278.326188 
" style="fill: none; stroke: #0000ff; stroke-width: 1.5; stroke-linecap: square"/>
    </g>
    <g id="text_26">
     <!-- Y -->
     <g transform="translate(263.86122 281.826188)scale(0.1 -0.1)">
      <use xlink:href="#DejaVuSans-59"/>
     </g>
    </g>
    <g id="line2d_26">
     <path d="M 235.86122 293.004312 
L 245.86122 293.004312 
L 255.86122 293.004312 
" style="fill: none; stroke: #008000; stroke-width: 1.5; stroke-linecap: square"/>
    </g>
    <g id="text_27">
     <!-- Z -->
     <g transform="translate(263.86122 296.504312)scale(0.1 -0.1)">
      <use xlink:href="#DejaVuSans-5a"/>
     </g>
    </g>
   </g>
  </g>
  <g id="axes_3">
   <g id="patch_14">
    <path d="M 327.617561 307.584 
L 414.72 307.584 
L 414.72 41.472 
L 327.617561 41.472 
z
" style="fill: #ffffff"/>
   </g>
   <g id="matplotlib.axis_5">
    <g id="xtick_5">
     <g id="line2d_27">
      <g>
       <use xlink:href="#m4543df85f6" x="331.576763" y="307.584" style="stroke: #000000; stroke-width: 0.8"/>
      </g>
     </g>
     <g id="text_28">
      <!-- 0 -->
      <g transform="translate(328.395513 322.182437)scale(0.1 -0.1)">
       <use xlink:href="#DejaVuSans-30"/>
      </g>
     </g>
    </g>
    <g id="xtick_6">
     <g id="line2d_28">
      <g>
       <use xlink:href="#m4543df85f6" x="374.90592" y="307.584" style="stroke: #000000; stroke-width: 0.8"/>
      </g>
     </g>
     <g id="text_29">
      <!-- 5 -->
      <g transform="translate(371.72467 322.182437)scale(0.1 -0.1)">
       <use xlink:href="#DejaVuSans-35"/>
      </g>
     </g>
    </g>
    <g id="text_30">
     <!-- Time (s) -->
     <g transform="translate(350.839874 335.860562)scale(0.1 -0.1)">
      <use xlink:href="#DejaVuSans-54"/>
      <use xlink:href="#DejaVuSans-69" x="57.958984"/>
      <use xlink:href="#DejaVuSans-6d" x="85.742188"/>
      <use xlink:href="#DejaVuSans-65" x="183.154297"/>
      <use xlink:href="#DejaVuSans-20" x="244.677734"/>
      <use xlink:href="#DejaVuSans-28" x="276.464844"/>
      <use xlink:href="#DejaVuSans-73" x="315.478516"/>
      <use xlink:href="#DejaVuSans-29" x="367.578125"/>
     </g>
    </g>
   </g>
   <g id="matplotlib.axis_6">
    <g id="ytick_13">
     <g id="line2d_29">
      <g>
       <use xlink:href="#m3db19afa90" x="327.617561" y="297.444099" style="stroke: #000000; stroke-width: 0.8"/>
      </g>
     </g>
     <g id="text_31">
      <!-- −10 -->
      <g transform="translate(299.512873 301.243318)scale(0.1 -0.1)">
       <use xlink:href="#DejaVuSans-2212"/>
       <use xlink:href="#DejaVuSans-31" x="83.789062"/>
       <use xlink:href="#DejaVuSans-30" x="147.412109"/>
      </g>
     </g>
    </g>
    <g id="ytick_14">
     <g id="line2d_30">
      <g>
       <use xlink:href="#m3db19afa90" x="327.617561" y="243.721901" style="stroke: #000000; stroke-width: 0.8"/>
      </g>
     </g>
     <g id="text_32">
      <!-- 0 -->
      <g transform="translate(314.255061 247.52112)scale(0.1 -0.1)">
       <use xlink:href="#DejaVuSans-30"/>
      </g>
     </g>
    </g>
    <g id="ytick_15">
     <g id="line2d_31">
      <g>
       <use xlink:href="#m3db19afa90" x="327.617561" y="189.999704" style="stroke: #000000; stroke-width: 0.8"/>
      </g>
     </g>
     <g id="text_33">
      <!-- 10 -->
      <g transform="translate(307.892561 193.798922)scale(0.1 -0.1)">
       <use xlink:href="#DejaVuSans-31"/>
       <use xlink:href="#DejaVuSans-30" x="63.623047"/>
      </g>
     </g>
    </g>
    <g id="ytick_16">
     <g id="line2d_32">
      <g>
       <use xlink:href="#m3db19afa90" x="327.617561" y="136.277506" style="stroke: #000000; stroke-width: 0.8"/>
      </g>
     </g>
     <g id="text_34">
      <!-- 20 -->
      <g transform="translate(307.892561 140.076724)scale(0.1 -0.1)">
       <use xlink:href="#DejaVuSans-32"/>
       <use xlink:href="#DejaVuSans-30" x="63.623047"/>
      </g>
     </g>
    </g>
    <g id="ytick_17">
     <g id="line2d_33">
      <g>
       <use xlink:href="#m3db19afa90" x="327.617561" y="82.555308" style="stroke: #000000; stroke-width: 0.8"/>
      </g>
     </g>
     <g id="text_35">
      <!-- 30 -->
      <g transform="translate(307.892561 86.354527)scale(0.1 -0.1)">
       <defs>
        <path id="DejaVuSans-33" d="M 2597 2516 
Q 3050 2419 3304 2112 
Q 3559 1806 3559 1356 
Q 3559 666 3084 287 
Q 2609 -91 1734 -91 
Q 1441 -91 1130 -33 
Q 819 25 488 141 
L 488 750 
Q 750 597 1062 519 
Q 1375 441 1716 441 
Q 2309 441 2620 675 
Q 2931 909 2931 1356 
Q 2931 1769 2642 2001 
Q 2353 2234 1838 2234 
L 1294 2234 
L 1294 2753 
L 1863 2753 
Q 2328 2753 2575 2939 
Q 2822 3125 2822 3475 
Q 2822 3834 2567 4026 
Q 2313 4219 1838 4219 
Q 1578 4219 1281 4162 
Q 984 4106 628 3988 
L 628 4550 
Q 988 4650 1302 4700 
Q 1616 4750 1894 4750 
Q 2613 4750 3031 4423 
Q 3450 4097 3450 3541 
Q 3450 3153 3228 2886 
Q 3006 2619 2597 2516 
z
" transform="scale(0.015625)"/>
       </defs>
       <use xlink:href="#DejaVuSans-33"/>
       <use xlink:href="#DejaVuSans-30" x="63.623047"/>
      </g>
     </g>
    </g>
    <g id="text_36">
     <!-- Torque -->
     <g transform="translate(293.433186 191.178781)rotate(-90)scale(0.1 -0.1)">
      <defs>
       <path id="DejaVuSans-71" d="M 947 1747 
Q 947 1113 1208 752 
Q 1469 391 1925 391 
Q 2381 391 2643 752 
Q 2906 1113 2906 1747 
Q 2906 2381 2643 2742 
Q 2381 3103 1925 3103 
Q 1469 3103 1208 2742 
Q 947 2381 947 1747 
z
M 2906 525 
Q 2725 213 2448 61 
Q 2172 -91 1784 -91 
Q 1150 -91 751 415 
Q 353 922 353 1747 
Q 353 2572 751 3078 
Q 1150 3584 1784 3584 
Q 2172 3584 2448 3432 
Q 2725 3281 2906 2969 
L 2906 3500 
L 3481 3500 
L 3481 -1331 
L 2906 -1331 
L 2906 525 
z
" transform="scale(0.015625)"/>
      </defs>
      <use xlink:href="#DejaVuSans-54"/>
      <use xlink:href="#DejaVuSans-6f" x="44.083984"/>
      <use xlink:href="#DejaVuSans-72" x="105.265625"/>
      <use xlink:href="#DejaVuSans-71" x="144.628906"/>
      <use xlink:href="#DejaVuSans-75" x="208.105469"/>
      <use xlink:href="#DejaVuSans-65" x="271.484375"/>
     </g>
    </g>
   </g>
   <g id="line2d_34">
    <path d="M 331.576763 243.721901 
L 331.581096 243.165621 
L 331.685086 244.060037 
L 331.936395 244.968903 
L 332.200703 245.204778 
L 332.603664 245.22154 
L 334.016194 244.956784 
L 337.144559 244.309937 
L 337.950482 244.474213 
L 338.704409 244.857465 
L 339.449671 245.493166 
L 340.194932 246.42722 
L 340.966191 247.770414 
L 341.880436 249.851133 
L 343.175978 252.838025 
L 343.188977 252.820888 
L 343.266969 252.37027 
L 343.903908 247.617045 
L 344.371863 246.664509 
L 345.238446 244.907751 
L 345.936046 242.924494 
L 346.694306 240.047193 
L 347.751537 235.034766 
L 349.164068 228.530491 
L 349.866 226.30044 
L 350.481274 225.05276 
L 350.918899 224.64318 
L 351.304528 224.56353 
L 351.694491 224.716537 
L 352.158113 225.15975 
L 352.747389 226.058603 
L 353.414658 227.467914 
L 353.496984 229.070478 
L 354.008268 240.127053 
L 354.302906 241.541765 
L 354.827189 242.766456 
L 357.500598 248.393801 
L 358.436508 249.543537 
L 360.546638 251.673835 
L 361.495546 252.300846 
L 362.18448 252.505192 
L 362.860415 252.448521 
L 363.497353 252.161548 
L 364.22095 251.577581 
L 365.039871 250.628623 
L 365.117864 249.798045 
L 365.607483 244.040063 
L 365.871791 243.269301 
L 366.09277 243.168192 
L 366.383075 243.324495 
L 367.5053 244.047657 
L 368.350219 244.237182 
L 370.13538 244.349922 
L 373.259412 244.589281 
L 374.125995 244.657651 
L 376.548095 244.604531 
L 379.342826 244.288832 
L 381.868916 244.081881 
L 383.875056 244.115124 
L 385.153266 244.349616 
L 386.093509 244.73591 
L 387.189737 245.217343 
L 388.493944 244.998203 
L 390.898712 244.603729 
L 391.704635 244.743296 
L 392.462895 245.101447 
L 393.195158 245.702309 
L 393.957751 246.630881 
L 394.785338 248.008971 
L 396.895468 252.040986 
L 396.938797 251.871178 
L 397.07745 250.145604 
L 397.411085 246.410975 
L 397.714389 245.34151 
L 398.19101 244.559978 
L 398.962269 243.236048 
L 399.690198 241.492121 
L 400.548116 238.811656 
L 403.672148 228.382633 
L 404.404411 227.087951 
L 404.950358 226.58328 
L 405.444311 226.410492 
L 405.912265 226.478835 
L 406.397552 226.783344 
L 406.926168 227.394913 
L 407.372458 228.215907 
L 407.480781 230.154297 
L 408.04406 240.774057 
L 408.317034 242.365556 
L 408.728661 243.403432 
L 410.28851 246.937271 
L 410.760798 247.915513 
L 410.760798 247.915513 
" clip-path="url(#pd5ee2e4b7a)" style="fill: none; stroke: #1f77b4; stroke-width: 1.5; stroke-linecap: square"/>
   </g>
   <g id="line2d_35">
    <path d="M 331.576763 243.721901 
L 331.581096 129.692366 
L 331.689419 129.92717 
L 332.005721 131.237264 
L 333.626232 138.803995 
L 334.631468 142.286805 
L 335.311736 143.985338 
L 335.983338 145.119416 
L 336.568282 145.704043 
L 337.096897 145.899996 
L 337.560519 145.838016 
L 338.041473 145.540548 
L 338.578755 144.930447 
L 339.189696 143.876786 
L 339.887295 142.196194 
L 340.606559 139.849407 
L 341.338822 136.668222 
L 342.045087 132.607075 
L 342.253067 131.164645 
L 342.942001 125.4722 
L 343.440286 119.688489 
L 344.536514 106.612751 
L 345.95771 91.236321 
L 346.7593 84.802439 
L 347.361575 81.582155 
L 347.825197 80.161102 
L 348.17183 79.703476 
L 348.423139 79.681073 
L 348.678781 79.90677 
L 349.012416 80.540628 
L 349.480371 81.964649 
L 350.229965 85.07053 
L 351.746486 91.378507 
L 352.348761 92.939964 
L 352.795051 93.556503 
L 353.128686 93.687516 
L 353.410325 93.565199 
L 353.479652 93.15423 
L 353.986603 89.462599 
L 354.255244 89.169129 
L 355.36447 88.443409 
L 355.888753 87.657429 
L 356.465031 86.441535 
L 357.227624 84.273879 
L 360.949599 72.261697 
L 362.470452 68.700811 
L 364.446262 64.002228 
L 366.942021 57.476662 
L 367.973255 55.727254 
L 368.878835 54.606049 
L 369.684757 53.943686 
L 370.404021 53.627249 
L 371.049625 53.57751 
L 371.660566 53.753914 
L 372.262842 54.165551 
L 372.886782 54.873299 
L 373.549718 55.980305 
L 374.264649 57.632278 
L 375.048907 60.040476 
L 375.924156 63.492222 
L 376.929392 68.417567 
L 378.151274 75.595229 
L 379.815114 86.823171 
L 385.270255 124.610321 
L 386.604793 131.93194 
L 387.796345 137.266142 
L 388.766918 140.612578 
L 389.386525 142.230271 
L 390.045128 143.384826 
L 390.608407 143.962428 
L 391.085028 144.157623 
L 391.544317 144.105153 
L 392.059934 143.726087 
L 392.58855 143.035129 
L 393.186492 141.859699 
L 393.862427 140.004443 
L 394.577358 137.365981 
L 395.305288 133.788779 
L 396.028885 129.06824 
L 396.748149 122.906709 
L 397.229102 117.12154 
L 398.230006 106.492519 
L 399.586208 93.771781 
L 400.439793 87.699157 
L 401.098396 84.46152 
L 401.622679 82.875457 
L 402.038639 82.234982 
L 402.363607 82.090323 
L 402.658246 82.203652 
L 403.013545 82.61069 
L 403.498831 83.550128 
L 404.291755 85.656114 
L 405.743282 89.509938 
L 406.371555 90.558899 
L 406.848175 90.969903 
L 407.238138 91.034999 
L 407.402789 90.901506 
L 408.28237 88.165012 
L 408.559677 88.115998 
L 409.434926 88.082701 
L 409.894215 87.795259 
L 410.349171 87.314896 
L 410.760798 86.673469 
L 410.760798 86.673469 
" clip-path="url(#pd5ee2e4b7a)" style="fill: none; stroke: #ff7f0e; stroke-width: 1.5; stroke-linecap: square"/>
   </g>
   <g id="line2d_36">
    <path d="M 331.576763 243.721901 
L 331.689419 260.388949 
L 331.919063 260.935339 
L 333.71289 266.269579 
L 338.115133 278.834782 
L 339.787638 282.939285 
L 340.970524 285.259782 
L 341.776446 286.404071 
L 342.348391 286.869639 
L 342.768684 286.940512 
L 343.128316 286.774452 
L 343.344962 286.462812 
L 345.411763 282.505575 
L 346.161357 281.266896 
L 346.642311 280.850972 
L 347.010609 280.800975 
L 347.352909 280.9876 
L 347.742871 281.482132 
L 348.228158 282.497729 
L 348.878095 284.432731 
L 350.17797 289.206453 
L 351.252533 292.705162 
L 351.971797 294.348468 
L 352.543742 295.155012 
L 353.003031 295.456773 
L 353.388661 295.461255 
L 353.46232 295.331739 
L 354.094926 293.174068 
L 354.653872 292.9778 
L 355.186821 292.636124 
L 355.767431 291.97596 
L 356.486695 290.733383 
L 357.37061 288.704425 
L 358.388845 285.838818 
L 359.602062 282.57404 
L 361.655864 277.183782 
L 365.798131 266.892095 
L 367.08934 263.814115 
L 368.731515 260.590201 
L 372.280173 254.26259 
L 374.442298 250.704901 
L 375.646849 249.129284 
L 376.582759 248.248335 
L 377.371349 247.79494 
L 378.068949 247.640377 
L 378.727552 247.720973 
L 379.386155 248.029915 
L 380.088088 248.615077 
L 380.408723 249.099119 
L 380.941672 250.045567 
L 382.674838 252.698592 
L 383.914052 255.124765 
L 385.660217 259.114053 
L 387.67069 264.563015 
L 392.371904 277.461828 
L 393.858094 280.843295 
L 394.884995 282.634951 
L 395.612925 283.507128 
L 396.145873 283.832561 
L 396.5575 283.832832 
L 396.921465 283.609911 
L 398.689295 281.186535 
L 399.586208 280.174098 
L 400.12349 279.872879 
L 400.548116 279.873759 
L 400.95541 280.104655 
L 401.406033 280.63705 
L 401.95198 281.659278 
L 402.666912 283.519261 
L 404.06211 287.943652 
L 405.223332 291.254175 
L 406.003257 292.854677 
L 406.627197 293.674709 
L 407.142814 294.017468 
L 407.42012 294.004616 
L 408.507682 292.356555 
L 409.829221 291.992438 
L 410.479159 291.353852 
L 410.760798 290.985269 
L 410.760798 290.985269 
" clip-path="url(#pd5ee2e4b7a)" style="fill: none; stroke: #2ca02c; stroke-width: 1.5; stroke-linecap: square"/>
   </g>
   <g id="line2d_37">
    <path d="M 331.576763 243.721901 
L 331.598427 243.402225 
L 331.689419 243.407757 
L 332.352355 243.586955 
L 340.346584 245.731534 
L 342.136078 245.976097 
L 343.245305 245.91179 
L 344.601508 245.453443 
L 346.78963 244.401786 
L 348.223825 243.864531 
L 349.515034 243.624981 
L 351.330526 243.543469 
L 353.56631 243.416987 
L 353.956273 243.188372 
L 354.692868 243.16977 
L 356.378373 243.067614 
L 358.076876 242.730603 
L 363.055396 241.539976 
L 369.112812 240.41032 
L 370.845978 240.430694 
L 372.596476 240.677788 
L 374.806263 241.233633 
L 378.562901 242.188391 
L 381.591609 242.627626 
L 384.364675 243.076133 
L 387.861338 243.89178 
L 394.824334 245.633121 
L 396.323523 245.753949 
L 397.233435 245.624328 
L 399.191913 245.022371 
L 402.363607 243.955149 
L 404.161768 243.650137 
L 407.047489 243.419611 
L 407.675762 243.271667 
L 408.412358 243.108647 
L 410.760798 242.981932 
L 410.760798 242.981932 
" clip-path="url(#pd5ee2e4b7a)" style="fill: none; stroke: #d62728; stroke-width: 1.5; stroke-linecap: square"/>
   </g>
   <g id="line2d_38">
    <path d="M 331.576763 243.721901 
L 331.689419 243.671811 
L 334.852447 243.665767 
L 343.470617 243.768764 
L 344.224544 243.806835 
L 349.463039 243.713955 
L 355.269146 243.580754 
L 407.736423 243.614308 
L 409.430593 243.592302 
L 410.760798 243.589035 
L 410.760798 243.589035 
" clip-path="url(#pd5ee2e4b7a)" style="fill: none; stroke: #9467bd; stroke-width: 1.5; stroke-linecap: square"/>
   </g>
   <g id="line2d_39">
    <path d="M 331.576763 243.721901 
L 395.001984 243.72183 
L 410.760798 243.721748 
L 410.760798 243.721748 
" clip-path="url(#pd5ee2e4b7a)" style="fill: none; stroke: #8c564b; stroke-width: 1.5; stroke-linecap: square"/>
   </g>
   <g id="patch_15">
    <path d="M 327.617561 307.584 
L 327.617561 41.472 
" style="fill: none; stroke: #000000; stroke-width: 0.8; stroke-linejoin: miter; stroke-linecap: square"/>
   </g>
   <g id="patch_16">
    <path d="M 414.72 307.584 
L 414.72 41.472 
" style="fill: none; stroke: #000000; stroke-width: 0.8; stroke-linejoin: miter; stroke-linecap: square"/>
   </g>
   <g id="patch_17">
    <path d="M 327.617561 307.584 
L 414.72 307.584 
" style="fill: none; stroke: #000000; stroke-width: 0.8; stroke-linejoin: miter; stroke-linecap: square"/>
   </g>
   <g id="patch_18">
    <path d="M 327.617561 41.472 
L 414.72 41.472 
" style="fill: none; stroke: #000000; stroke-width: 0.8; stroke-linejoin: miter; stroke-linecap: square"/>
   </g>
   <g id="text_37">
    <!-- Joint Input -->
    <g transform="translate(340.462843 35.472)scale(0.12 -0.12)">
     <defs>
      <path id="DejaVuSans-4a" d="M 628 4666 
L 1259 4666 
L 1259 325 
Q 1259 -519 939 -900 
Q 619 -1281 -91 -1281 
L -331 -1281 
L -331 -750 
L -134 -750 
Q 284 -750 456 -515 
Q 628 -281 628 325 
L 628 4666 
z
" transform="scale(0.015625)"/>
      <path id="DejaVuSans-49" d="M 628 4666 
L 1259 4666 
L 1259 0 
L 628 0 
L 628 4666 
z
" transform="scale(0.015625)"/>
     </defs>
     <use xlink:href="#DejaVuSans-4a"/>
     <use xlink:href="#DejaVuSans-6f" x="29.492188"/>
     <use xlink:href="#DejaVuSans-69" x="90.673828"/>
     <use xlink:href="#DejaVuSans-6e" x="118.457031"/>
     <use xlink:href="#DejaVuSans-74" x="181.835938"/>
     <use xlink:href="#DejaVuSans-20" x="221.044922"/>
     <use xlink:href="#DejaVuSans-49" x="252.832031"/>
     <use xlink:href="#DejaVuSans-6e" x="282.324219"/>
     <use xlink:href="#DejaVuSans-70" x="345.703125"/>
     <use xlink:href="#DejaVuSans-75" x="409.179688"/>
     <use xlink:href="#DejaVuSans-74" x="472.558594"/>
    </g>
   </g>
   <g id="legend_3">
    <g id="patch_19">
     <path d="M 351.98753 220.062375 
L 390.35003 220.062375 
Q 392.35003 220.062375 392.35003 218.062375 
L 392.35003 130.993625 
Q 392.35003 128.993625 390.35003 128.993625 
L 351.98753 128.993625 
Q 349.98753 128.993625 349.98753 130.993625 
L 349.98753 218.062375 
Q 349.98753 220.062375 351.98753 220.062375 
z
" style="fill: #ffffff; opacity: 0.8; stroke: #cccccc; stroke-linejoin: miter"/>
    </g>
    <g id="line2d_40">
     <path d="M 353.98753 137.092062 
L 363.98753 137.092062 
L 373.98753 137.092062 
" style="fill: none; stroke: #1f77b4; stroke-width: 1.5; stroke-linecap: square"/>
    </g>
    <g id="text_38">
     <!-- 1 -->
     <g transform="translate(381.98753 140.592062)scale(0.1 -0.1)">
      <use xlink:href="#DejaVuSans-31"/>
     </g>
    </g>
    <g id="line2d_41">
     <path d="M 353.98753 151.770187 
L 363.98753 151.770187 
L 373.98753 151.770187 
" style="fill: none; stroke: #ff7f0e; stroke-width: 1.5; stroke-linecap: square"/>
    </g>
    <g id="text_39">
     <!-- 2 -->
     <g transform="translate(381.98753 155.270187)scale(0.1 -0.1)">
      <use xlink:href="#DejaVuSans-32"/>
     </g>
    </g>
    <g id="line2d_42">
     <path d="M 353.98753 166.448312 
L 363.98753 166.448312 
L 373.98753 166.448312 
" style="fill: none; stroke: #2ca02c; stroke-width: 1.5; stroke-linecap: square"/>
    </g>
    <g id="text_40">
     <!-- 3 -->
     <g transform="translate(381.98753 169.948312)scale(0.1 -0.1)">
      <use xlink:href="#DejaVuSans-33"/>
     </g>
    </g>
    <g id="line2d_43">
     <path d="M 353.98753 181.126438 
L 363.98753 181.126438 
L 373.98753 181.126438 
" style="fill: none; stroke: #d62728; stroke-width: 1.5; stroke-linecap: square"/>
    </g>
    <g id="text_41">
     <!-- 4 -->
     <g transform="translate(381.98753 184.626438)scale(0.1 -0.1)">
      <use xlink:href="#DejaVuSans-34"/>
     </g>
    </g>
    <g id="line2d_44">
     <path d="M 353.98753 195.804563 
L 363.98753 195.804563 
L 373.98753 195.804563 
" style="fill: none; stroke: #9467bd; stroke-width: 1.5; stroke-linecap: square"/>
    </g>
    <g id="text_42">
     <!-- 5 -->
     <g transform="translate(381.98753 199.304563)scale(0.1 -0.1)">
      <use xlink:href="#DejaVuSans-35"/>
     </g>
    </g>
    <g id="line2d_45">
     <path d="M 353.98753 210.482687 
L 363.98753 210.482687 
L 373.98753 210.482687 
" style="fill: none; stroke: #8c564b; stroke-width: 1.5; stroke-linecap: square"/>
    </g>
    <g id="text_43">
     <!-- 6 -->
     <g transform="translate(381.98753 213.982687)scale(0.1 -0.1)">
      <use xlink:href="#DejaVuSans-36"/>
     </g>
    </g>
   </g>
  </g>
  <g id="text_44">
   <!-- Dynamic Simulation -->
   <g transform="translate(170.072812 16.030125)scale(0.12 -0.12)">
    <defs>
     <path id="DejaVuSans-53" d="M 3425 4513 
L 3425 3897 
Q 3066 4069 2747 4153 
Q 2428 4238 2131 4238 
Q 1616 4238 1336 4038 
Q 1056 3838 1056 3469 
Q 1056 3159 1242 3001 
Q 1428 2844 1947 2747 
L 2328 2669 
Q 3034 2534 3370 2195 
Q 3706 1856 3706 1288 
Q 3706 609 3251 259 
Q 2797 -91 1919 -91 
Q 1588 -91 1214 -16 
Q 841 59 441 206 
L 441 856 
Q 825 641 1194 531 
Q 1563 422 1919 422 
Q 2459 422 2753 634 
Q 3047 847 3047 1241 
Q 3047 1584 2836 1778 
Q 2625 1972 2144 2069 
L 1759 2144 
Q 1053 2284 737 2584 
Q 422 2884 422 3419 
Q 422 4038 858 4394 
Q 1294 4750 2059 4750 
Q 2388 4750 2728 4690 
Q 3069 4631 3425 4513 
z
" transform="scale(0.015625)"/>
    </defs>
    <use xlink:href="#DejaVuSans-44"/>
    <use xlink:href="#DejaVuSans-79" x="77.001953"/>
    <use xlink:href="#DejaVuSans-6e" x="136.181641"/>
    <use xlink:href="#DejaVuSans-61" x="199.560547"/>
    <use xlink:href="#DejaVuSans-6d" x="260.839844"/>
    <use xlink:href="#DejaVuSans-69" x="358.251953"/>
    <use xlink:href="#DejaVuSans-63" x="386.035156"/>
    <use xlink:href="#DejaVuSans-20" x="441.015625"/>
    <use xlink:href="#DejaVuSans-53" x="472.802734"/>
    <use xlink:href="#DejaVuSans-69" x="536.279297"/>
    <use xlink:href="#DejaVuSans-6d" x="564.0625"/>
    <use xlink:href="#DejaVuSans-75" x="661.474609"/>
    <use xlink:href="#DejaVuSans-6c" x="724.853516"/>
    <use xlink:href="#DejaVuSans-61" x="752.636719"/>
    <use xlink:href="#DejaVuSans-74" x="813.916016"/>
    <use xlink:href="#DejaVuSans-69" x="853.125"/>
    <use xlink:href="#DejaVuSans-6f" x="880.908203"/>
    <use xlink:href="#DejaVuSans-6e" x="942.089844"/>
   </g>
  </g>
 </g>
 <defs>
  <clipPath id="p9e887ef1bb">
   <rect x="57.6" y="41.472" width="87.102439" height="266.112"/>
  </clipPath>
  <clipPath id="pec2dee41be">
   <rect x="192.60878" y="41.472" width="87.102439" height="266.112"/>
  </clipPath>
  <clipPath id="pd5ee2e4b7a">
   <rect x="327.617561" y="41.472" width="87.102439" height="266.112"/>
  </clipPath>
 </defs>
</svg>
